<svg id="Layer_1" data-name="Layer 1" xmlns="http://www.w3.org/2000/svg" viewBox="0 0 1080 460"><defs><style>.cls-1{fill:#52595d;}.cls-2{fill:#9b9b9b;}.cls-3{fill:#0089b6;}.cls-4{fill:#9b2321;}.cls-5{fill:#dd9572;}.cls-6{fill:#0e0e10;}.cls-7{fill:#f9f9f9;opacity:0.5;}.cls-8{fill:#ecece7;}.cls-9{fill:#aaa;}.cls-10{opacity:0.01;}</style></defs><g id="boat-top"><path id="svg-color-1" class="cls-1" d="M994.834,293.538H175.488c-62.89,0-156.333,57.631-168.139,65.074a2.66,2.66,0,0,0-1.241,2.254v7.5a2.657,2.657,0,0,0,1.241,2.253C19.155,378.066,112.6,435.7,175.488,435.7H994.834a71.08,71.08,0,1,0,0-142.16Z"/><g id="svg-color-2"><path class="cls-2" d="M88.62,315.607v9.8a3.224,3.224,0,0,1-1.919,2.943c-15.29,6.793-29.6,14.088-41.511,20.558a3.209,3.209,0,0,0-1.675,2.827v25.2a3.209,3.209,0,0,0,1.675,2.828C57.1,386.233,71.411,393.528,86.7,400.321a3.224,3.224,0,0,1,1.919,2.943v9.807q5.519,2.353,11.16,4.581V311.027Q94.148,313.247,88.62,315.607Zm-5.978,61.476h-29.8V351.6h29.8Z"/><rect class="cls-2" x="212.661" y="303.889" width="667.873" height="120.625"/></g><g id="svg-color-4"><rect class="cls-3" x="212.661" y="303.889" width="769.439" height="5.217"/><rect class="cls-3" x="212.661" y="419.297" width="769.439" height="5.217"/><rect class="cls-3" x="635.953" y="361.497" width="118.363" height="5.217" transform="translate(1059.241 -331.029) rotate(90)"/></g><g id="detail"><path class="cls-4" d="M26.1,366.948H15.667a2.609,2.609,0,0,1,0-5.217H26.1a2.609,2.609,0,1,1,0,5.217Z"/><path class="cls-4" d="M61.518,361.47H39.413a1.3,1.3,0,1,1,0-2.609H61.518a1.3,1.3,0,0,1,0,2.609Z"/><path class="cls-4" d="M61.518,369.817H39.413a1.3,1.3,0,1,1,0-2.608H61.518a1.3,1.3,0,0,1,0,2.608Z"/><path class="cls-5" d="M107.084,316.031v96.616c27.034,10.267,49.977,15.468,68.248,15.468h37.329V300.563H175.332C157.061,300.563,134.118,305.765,107.084,316.031Z"/><path class="cls-5" d="M1023.993,314.276a57.647,57.647,0,0,0-18.061-6.878,12.073,12.073,0,0,1-9.857-11.789v-2.315c-.467-.009-.928-.035-1.4-.035H982.1v142.16h12.579c.469,0,.93-.026,1.4-.035V433.07a12.074,12.074,0,0,1,9.857-11.79,57.621,57.621,0,0,0,18.061-6.877,15.555,15.555,0,0,0,7.567-13.434V327.71A15.553,15.553,0,0,0,1023.993,314.276Z"/><circle class="cls-6" cx="285.73" cy="364.106" r="7.349"/><circle class="cls-6" cx="402.208" cy="364.106" r="7.349"/><circle class="cls-6" cx="518.685" cy="364.106" r="7.349"/><circle class="cls-6" cx="635.162" cy="364.106" r="7.349"/><circle class="cls-6" cx="751.64" cy="364.106" r="7.349"/><path class="cls-6" d="M880.534,400.121H803.3a3.4,3.4,0,0,1-3.4-3.4V331.492a3.4,3.4,0,0,1,3.4-3.4h77.234v.521H803.3a2.881,2.881,0,0,0-2.878,2.879V396.72A2.882,2.882,0,0,0,803.3,399.6h77.234Z"/><rect class="cls-6" x="880.534" y="395.853" width="101.564" height="0.522"/><rect class="cls-6" x="880.534" y="332.304" width="101.564" height="0.522"/></g></g><g id="boat-side"><g id="detail-2" data-name="detail"><path class="cls-6" d="M103.005,227.532c-1.161-.347-3.894.185-5.947.68a2.624,2.624,0,0,0-.582-1.078c1.539-1.445,3.482-3.44,3.829-4.6a3.721,3.721,0,0,0-7.131-2.129c-.347,1.161.185,3.894.68,5.947a2.632,2.632,0,0,0-.959.476c-1.443-1.535-3.421-3.457-4.575-3.8a3.721,3.721,0,0,0-2.129,7.131c1.132.338,3.76-.159,5.794-.643a2.624,2.624,0,0,0,.62,1.148c-1.519,1.436-3.376,3.361-3.714,4.493a3.721,3.721,0,1,0,7.131,2.129c.345-1.154-.178-3.861-.671-5.91a2.606,2.606,0,0,0,.924-.541c1.446,1.54,3.44,3.483,4.6,3.83a3.721,3.721,0,1,0,2.129-7.131Z"/><path class="cls-6" d="M1020.047,227.873a4.026,4.026,0,0,0-2.508-3.39,21.052,21.052,0,0,0,2.84-10c0-2.85-1.5-5.161-3.354-5.161s-3.353,2.311-3.353,5.161v10.364h-6.717V230.9h6.717v10.364c0,2.85,1.5,5.16,3.353,5.16s3.354-2.31,3.354-5.16a21.056,21.056,0,0,0-2.84-10A4.024,4.024,0,0,0,1020.047,227.873Z"/><path class="cls-4" d="M58.406,112.33a24.371,24.371,0,0,0-10.592-5.552,25.633,25.633,0,0,0-8.28-.744,3.139,3.139,0,1,0,.493,6.258,19.12,19.12,0,0,1,4.38.2l-3.281,9.439,5.622,1.954,3.352-9.643a15.88,15.88,0,0,1,4.014,2.669,3.139,3.139,0,0,0,4.292-4.582Z"/><path class="cls-6" d="M1073.063,40.162c1.652-4.471.526-7.524-.71-9.3-2.1-3.019-6.169-4.751-11.157-4.751h-48.9a2.093,2.093,0,1,0,0,4.185h48.9c3.546,0,6.433,1.106,7.722,2.958.969,1.39,1.043,3.226.231,5.423l-29.656,76.458a11.422,11.422,0,0,0,1.192,9.774,9.606,9.606,0,0,0,7.735,4.349c1.945.133,4.035.19,6.049.207V137.9h6.688v-8.5c1.918-.057,3.208-.123,3.345-.13a2.092,2.092,0,0,0,1.98-2.2,2.069,2.069,0,0,0-2.2-1.98c-.088,0-8.926.454-15.58,0a5.537,5.537,0,0,1-4.518-2.467,7.3,7.3,0,0,1-.771-6.02Z"/><path class="cls-4" d="M1065.914,175.135H941.8V139.689s18.054.6,47.027,0c25.279-.518,60.6-2.051,77.091-4.272Z"/></g><g id="svg-color-1-2" data-name="svg-color-1"><path class="cls-1" d="M843.18,139.692H175.33c-14.355,0-32.973,1.04-55.02-6.047-2.184-.7-.78,7.175-3.266,7.039-1.783-.1-5.378-.215-7.221-.363-1.453-.117-4.377-7.694-9.751-9.054-18.639-4.719-35.29-3.354-60.646-13.541-.466-.188-.954-.333-1.433-.5a28.926,28.926,0,0,0-8.522-1.382c-11.774-.135-17.74,8.2-21.381,19.138,88.142,38.075,134.545,40.154,167.24,40.154H947.411c37.045,0,41.412-24.644,41.412-32.053v-3.39Z"/><polygon class="cls-1" points="988.823 28.206 901.437 37.454 212.531 37.454 212.531 139.692 988.823 139.692 988.823 28.206"/><rect class="cls-1" x="551.232" y="55.937" width="55.293" height="71.236"/></g><g id="svg-color-2-2" data-name="svg-color-2"><rect class="cls-2" x="941.796" y="175.135" width="124.118" height="32.495"/><path class="cls-2" d="M130.507,160.571c1.282-3.724-18.659-5.693-28.826-18.374-.738-.92-2.116-3.6-3.423-3.835A177.212,177.212,0,0,0,79.2,134.968c-11.929-1.684-25.45-3.592-42.508-10.445-.174-.07-.35-.124-.525-.181l-.448-.153a21.583,21.583,0,0,0-6.335-1.021c-3.42-.036-6.955.739-10.181,5.3a2.494,2.494,0,0,0,1.069,3.736C98.8,164.98,129.9,162.325,130.507,160.571Z"/><rect class="cls-2" x="222.123" y="55.937" width="318.191" height="71.236"/><rect class="cls-2" x="618.224" y="55.937" width="195.126" height="71.236"/><rect class="cls-2" x="823.41" y="55.937" width="39.072" height="71.236"/><polygon class="cls-2" points="977.125 127.172 871.607 127.172 871.607 55.937 901.437 55.937 977.125 46.455 977.125 127.172"/></g><path class="cls-6" d="M1008.671,248.249V207.63H988.823v-.442c0-7.409-4.367-32.053-41.412-32.053H175.33c-32.7,0-79.1-2.079-167.246-40.157-12.2,28.81,35.525,90.459,50.5,113.271ZM94.457,216.391a12.4,12.4,0,1,1-12.4,12.4A12.4,12.4,0,0,1,94.457,216.391Z"/><path class="cls-7" d="M94.457,241.452a12.662,12.662,0,1,1,2.092-25.15c-11.094-2.729-23.257-6.246-36.711-10.78l.166-.5C114.97,223.547,148.353,225.1,175.33,225.1H314.149v.523H175.33a305.791,305.791,0,0,1-76.993-8.884,12.662,12.662,0,0,1-3.88,24.715Zm0-24.8A12.139,12.139,0,1,0,106.6,228.791,12.152,12.152,0,0,0,94.457,216.652Zm163.229-15.1H175.33c-32.428,0-73.121-2.417-145.916-31.289l.193-.487c72.709,28.838,113.344,31.253,145.723,31.253h82.356Z"/><g id="svg-color-3"><path class="cls-8" d="M535.082,61.169v60.772H227.355V61.169H535.082m5.232-5.232H222.123v71.235H540.314V55.937Z"/><path class="cls-8" d="M808.118,61.169v60.772H623.456V61.169H808.118m5.232-5.232H618.224v71.235H813.35V55.937Z"/><path class="cls-8" d="M857.251,61.169v60.772H828.642V61.169h28.609m5.231-5.232H823.41v71.235h39.072V55.937Z"/><path class="cls-8" d="M971.893,52.383v69.558H876.839V61.169h24.925l.324-.041,69.805-8.745m5.232-5.928-75.688,9.482h-29.83v71.235H977.125V46.455Z"/></g><g id="svg-color-4-2" data-name="svg-color-4"><path class="cls-3" d="M901.437,33.268H215.062a2.532,2.532,0,0,0-2.531,2.532v1.654H901.437l87.386-9.248V26.834a2.532,2.532,0,0,0-2.8-2.518Z"/></g><g id="detail-3" data-name="detail"><polygon class="cls-6" points="608.167 52.354 549.552 52.354 546.198 56.29 546.596 56.63 549.793 52.878 607.926 52.878 611.123 56.63 611.521 56.29 608.167 52.354"/><path class="cls-6" d="M551.232,55.937v71.235h55.294V55.937Zm.524.523h26.862v70.189H551.756ZM606,126.649H579.141V56.46H606Z"/><rect class="cls-6" x="212.531" y="139.169" width="776.292" height="0.523"/><path class="cls-9" d="M682.8,70.966h65.978a0,0,0,0,1,0,0v32.67a8.508,8.508,0,0,1-8.508,8.508H691.306a8.508,8.508,0,0,1-8.508-8.508V70.966A0,0,0,0,1,682.8,70.966Z"/><circle class="cls-9" cx="274.531" cy="91.555" r="15.442"/><circle class="cls-9" cx="365.777" cy="91.555" r="15.442"/><path class="cls-9" d="M427.777,70.966h65.978a0,0,0,0,1,0,0v32.67a8.508,8.508,0,0,1-8.508,8.508H436.285a8.508,8.508,0,0,1-8.508-8.508V70.966A0,0,0,0,1,427.777,70.966Z"/></g></g><g id="svg-options" class="cls-10"><g id="check"><rect id="default-false" class="cls-6" x="536.414" y="213.243" width="1.204" height="1.046"/><rect id="id-svg-color-3" class="cls-6" x="536.414" y="213.243" width="1.204" height="1.046"/><rect id="title-Coachlines" class="cls-6" x="536.414" y="213.243" width="1.204" height="1.046"/></g><g id="check-2" data-name="check"><rect id="default-false-2" data-name="default-false" class="cls-6" x="536.414" y="213.243" width="1.204" height="1.046"/><rect id="id-svg-color-4" class="cls-6" x="536.414" y="213.243" width="1.204" height="1.046"/><rect id="title-Handrail" class="cls-6" x="536.414" y="213.243" width="1.204" height="1.046"/></g></g></svg>